<?xml version="1.0" encoding="UTF-8"?>
<svg id="Layer_1" xmlns="http://www.w3.org/2000/svg" version="1.1" viewBox="0 0 550 550">
  <!-- Generator: Adobe Illustrator 29.6.1, SVG Export Plug-In . SVG Version: 2.1.1 Build 9)  -->
  <defs>
    <style>
      .st0 {
        fill: none;
        stroke: currentColor;
        stroke-linecap: round;
        stroke-linejoin: round;
        stroke-width: var(--stroke-width, 35px);
      }
    </style>
  </defs>
  <path class="st0" d="M228.3,311.8s-29.7,88.5-97.1,89c-58.9.5-84-1.3-89.8,12-.5,1.2-2.2.8-2.5-.6-3.7-17-18.3-60,35.5-109.5"/>
  <path class="st0" d="M208.9,256.9s-93.3-.9-114.7-64.8c-18.7-55.9-24.7-80.3-39.1-81.7-1.3,0-1.4-1.9-.2-2.6,15-8.7,51.4-36,115.2,0"/>
  <path class="st0" d="M255.2,221.5s-28-89,26.2-129.1c47.3-35,68.7-48.3,65.6-62.5-.3-1.3,1.3-1.9,2.4-1,12.9,11.6,50.1,37.8,35.7,109.4"/>
  <path class="st0" d="M303.2,254.6s76-54.2,130.9-14.9c47.9,34.2,67.2,50.4,79.7,43.1,1.1-.7,2.3.7,1.7,2-7,15.8-20.5,59.3-93.1,67.7"/>
  <path class="st0" d="M286.6,310.4s75,55.6,54.7,119.8c-17.8,56.1-27.2,79.5-16.3,89.1,1,.9,0,2.4-1.4,2.2-17.3-1.8-62.7-1.1-93.2-67.6"/>
</svg>