<?xml version="1.0" encoding="UTF-8"?>
<svg id="Layer_3" xmlns="http://www.w3.org/2000/svg" version="1.1" viewBox="0 0 512 512">
  <!-- Generator: Adobe Illustrator 29.6.1, SVG Export Plug-In . SVG Version: 2.1.1 Build 9)  -->
  <defs>
    <style>
      .st0 {
        fill: none;
        stroke: currentColor;
        stroke-miterlimit: 10;
        stroke-width: var(--stroke-width, 35px);
      }

      .st1 {
        fill: none;
        stroke: currentColor;
        stroke-linecap: round;
        stroke-miterlimit: 10;
        stroke-width: var(--stroke-width, 35px);
      }
    </style>
  </defs>
  <line class="st1" x1="410.8" y1="256.1" x2="480.2" y2="256.1"/>
  <line class="st1" x1="31.8" y1="255.9" x2="101.2" y2="255.9"/>
  <line class="st1" x1="256" y1="101.8" x2="256" y2="32.4"/>
  <line class="st1" x1="256" y1="479.6" x2="256" y2="410.2"/>
  <line class="st1" x1="93.1" y1="410" x2="142.4" y2="361.1"/>
  <line class="st1" x1="361" y1="142.3" x2="410.2" y2="93.4"/>
  <line class="st1" x1="414" y1="413.7" x2="365.1" y2="364.4"/>
  <line class="st1" x1="149.4" y1="144.6" x2="100.5" y2="95.3"/>
  <path class="st0" d="M256,351.2c-52.5,0-95.2-42.7-95.2-95.2s42.7-95.2,95.2-95.2,95.2,42.7,95.2,95.2-42.7,95.2-95.2,95.2ZM256,162.7c-51.4,0-93.3,41.8-93.3,93.3s41.9,93.3,93.3,93.3,93.3-41.9,93.3-93.3-41.9-93.3-93.3-93.3h0Z"/>
</svg>