<?xml version="1.0" encoding="UTF-8"?>
<svg id="Layer_2" xmlns="http://www.w3.org/2000/svg" version="1.1" viewBox="0 0 512 512">
  <!-- Generator: Adobe Illustrator 29.6.1, SVG Export Plug-In . SVG Version: 2.1.1 Build 9)  -->
  <defs>
    <style>
      .st0 {
        fill: none;
        stroke: currentColor;
        stroke-linecap: round;
        stroke-linejoin: round;
        stroke-width: var(--stroke-width, 35px);
      }
    </style>
  </defs>
  <path class="st0" d="M179.8,483.4c-2.6-.8-5.3-1.6-8-2.5,0-6.5,0-15.5,0-25.1,0-3.9-1.6-7.7-4.4-10.4-2.7-2.7-6.4-4.2-10.2-4.2h-.2c-1.4,0-3.2,0-5.4,0-4.3,0-9.1,0-14.1-.2-14-.3-20.7-2.1-23.8-3.6-2.2-1-10-6.4-17.4-12l-11.1-14.6-6.7-9.1c-.2-.2-.3-.4-.5-.6l-6.8-8.3c-.4-.5-.8-.9-1.3-1.4l-7.1-6.7c-1.1-1-2.3-1.8-3.6-2.5-1-.5-3.9-2-5.9-3.1h0c-.7-.4-2.6-1.9-3.3-2.5-.6-.7-1-1.4-1.2-4.5.9-.7,2.7-1.5,3.9-1.7,0,0,.1,0,.3,0,1.1.3,7,2.2,16.6,8.7,3.3,2.2,8.5,7.6,11.4,10.9l10.1,15.2c1.4,2.5,4.6,7.5,11.3,14.5,6.2,6.6,14.7,11,22.7,11.9,1.4.1,2.7.2,4.1.2s1,0,1.4,0c.3,0,.5,0,.8,0h.6c.4,0,.8,0,1.1,0h.1c1.2,0,2.4,0,3.6,0,8.9,0,16-1,23.2-3.2l1.8-.6c6.1-1.9,10.2-7.4,10.3-13.8,0-6,.2-8.4.2-9.4.5-6.6,1-9.2,1.1-9.8,0-.3.2-.6.2-1,1-4.4,2.6-10.6,3.3-12.4.1-.3.3-.7.4-1,.2-.3.6-.6.8-.8,5-2.9,7.9-8.5,7.2-14.2-.6-5.8-4.6-10.6-10.1-12.4-75.2-24.1-124.5-79.3-125.6-140.7-.6-33.5,10.7-63.2,33.6-88.3,3.2-3.5,4.5-8.3,3.5-13-9.2-42.1,2.9-68.1,4.3-70.9,5.2-8.6,5.7-8.8,11.4-10.5l.8-.2c.1,0,.3,0,.7,0,12.5,0,46.3,15.2,66.4,26.1,7.4,4.2,9.1,6.1,9.2,6.2,2.8,3.2,6.8,4.9,10.9,4.9s2,0,3-.3c20.1-4.2,41.3-6.4,63-6.4s37.6,1.9,55.6,5.6c1,.2,2,.3,3,.3,3.8,0,7.5-1.5,10.2-4.2.5-.5,2.6-2.3,9.1-6.1,20.1-10.9,53.9-26.1,66.4-26.1s.6,0,.7,0l.8.2c5.7,1.7,6.3,1.9,11.5,10.5,1.4,2.8,13,27.8,4.8,68.3-1,4.8.5,9.8,4,13.2,26.7,26.5,40.8,57.9,40.8,90.9s-12.6,60.8-36.4,86.3c-24,25.7-57.3,45.2-96.4,56.3-5.4,1.5-9.4,6-10.4,11.5-.9,4.9.8,10,4.5,13.4.2.2,1,1.1,2,2.7,0,0,0,0,0,0,1.7,7.5,3.7,22.6,3.7,27.7v28.8c0,.4,0,.7,0,1.1,1.9,26,1.3,35.9.2,39.3-1.5.4-4,.8-5.9,1.1-.5,0-1.1.2-1.7.3v-78.3c0-8.3-3.2-17.9-6.3-26,0,0-.4-1.1-.4-1.1-.7-1.8-1.7-3.8-3.2-6.3-1.4-2.3-2.7-4.3-3.3-5.3-1-1.5-1.7-2.5-1.7-2.5-.5-.7-1.1-1.4-1.8-2.1l-4.1-3.9c36-6.9,69.6-21.8,96.9-43.1,36.9-28.8,57.1-65.7,57.1-103.7s-15.2-63.6-43-88.7c.7-4.9,1.2-10.2,1.5-15.6.4-5.8.5-11.3.3-15.8,0-1.5-.1-2.9-.2-4.3-.4-5.9-1-10.7-1.7-16.7,0,0,0-.7,0-.7l-1.4-10h0c-1-7-7.7-16.6-17.9-16.6s-1.2,0-1.8,0c0,0-2.3.3-2.3.3-.5,0-1,.1-1.4.2l-1.5.3c-2,.3-3.7.7-5.4,1-9.3,2-18.4,5.1-27,9.2-4.4,2.1-8.6,4.5-12.7,7h0c-.3.2-.5.3-.7.5-1,.7-2.1,1.3-3.1,2-5.6,3.6-11.8,7.5-17.3,11.9-20.8-5.1-42.3-7.8-64-7.8s-46.1,3.1-68.2,9.3c-6-5-13-9.5-19.4-13.5-1.1-.7-2.1-1.3-3.1-2-.7-.4-1.3-.8-1.9-1.2-3.6-2.2-7.3-4.2-11.1-6-10.4-5-21.5-8.6-33-10.5l-3-.5c-1.1-.2-2.2-.4-3.3-.4-9.9,0-17.2,9.6-18.2,16.6h0s-1.4,10.1-1.4,10.2c-.8,6.8-1.4,11.4-1.8,17.3,0,1.3-.2,2.6-.2,4.1-.2,4.2,0,9.2.2,14.4.2,4.7.9,14.7,2.7,24.1-24.8,25-38.3,55-38.3,85.4s18.6,70.9,52.5,98.2c25,20.1,56.5,34.9,90.8,42.7l-6.3,6.6c-.3.3-.6.7-.9,1-.2.2-.9,1.2-2,2.7-.6.9-1.3,2-2.1,3.2-.3.4-.5.9-.8,1.3-2.8,4.9-4.8,13.6-5.8,18.3,0,.4-.1.8-.2,1.1,0,0-.3,2.4-1.6,13.3,0,.4,0,.8,0,1.1-.3,8-.2,48.3-.1,80.8h0Z"/>
</svg>