<?xml version="1.0" encoding="UTF-8"?>
<svg id="Layer_1" xmlns="http://www.w3.org/2000/svg" viewBox="0 0 510.9 510.9">
    <path class="cls-1"
          d="M255.45,0C114.37,0,0,114.37,0,255.45s114.37,255.45,255.45,255.45,255.45-114.37,255.45-255.45S396.53,0,255.45,0ZM255.45,455.8c-110.65,0-200.35-89.7-200.35-200.35S144.8,55.1,255.45,55.1s200.35,89.7,200.35,200.35-89.7,200.35-200.35,200.35Z"/>
    <path class="cls-1"
          d="M289.14,236.5v118.4c0,18.3-14.84,33.14-33.14,33.14s-33.14-14.84-33.14-33.14v-118.4c0-18.3,14.84-33.14,33.14-33.14,9.15,0,17.43,3.71,23.43,9.71s9.71,14.28,9.71,23.43Z"/>
    <path class="cls-1"
          d="M284.28,135.25c0,16.96-13.75,30.72-30.71,30.72s-30.71-13.76-30.71-30.72,13.75-30.71,30.71-30.71,30.71,13.75,30.71,30.71Z"/>
</svg>