<?xml version="1.0" encoding="UTF-8"?>
<svg id="Layer_1" xmlns="http://www.w3.org/2000/svg" version="1.1" viewBox="0 0 550 550">
  <!-- Generator: Adobe Illustrator 29.6.1, SVG Export Plug-In . SVG Version: 2.1.1 Build 9)  -->
  <defs>
    <style>
      .st0 {
        fill: none;
        stroke: currentColor;
        stroke-linecap: round;
        stroke-linejoin: round;
        stroke-width: calc(var(--stroke-width, 25px) - 10px);
      }

      .st1 {
        fill: none;
        stroke: currentColor;
        stroke-linecap: round;
        stroke-linejoin: round;
        stroke-width: var(--stroke-width, 35px);
      }
    </style>
  </defs>
  <path class="st1" d="M354,161.3l88.8,24.2c13.4,3.7,21.6,13.7,22.7,29.7v299.7H84.5V35h187.7c2.6,0,5.2.4,7.6,1.2,7.2,2.3,13.3,7.7,16.2,15l35.9,90.4c3.9,9.7,12.1,17.1,22.2,19.8Z"/>
  <g>
    <path class="st0" d="M248.7,352.6s-16.7,49.9-54.7,50.2c-33.2.3-47.4-.7-50.6,6.8-.3.7-1.2.5-1.4-.3-2.1-9.6-10.3-33.8,20-61.7"/>
    <path class="st0" d="M237.7,321.7s-52.6-.5-64.7-36.5c-10.5-31.5-13.9-45.3-22-46.1-.7,0-.8-1.1-.1-1.5,8.5-4.9,29-20.3,64.9,0"/>
    <path class="st0" d="M263.8,301.7s-15.8-50.2,14.8-72.8c26.7-19.7,38.7-27.2,37-35.2-.2-.7.7-1.1,1.4-.6,7.3,6.5,28.2,21.3,20.1,61.7"/>
    <path class="st0" d="M290.9,320.4s42.8-30.6,73.8-8.4c27,19.3,37.9,28.4,44.9,24.3.6-.4,1.3.4,1,1.1-3.9,8.9-11.6,33.4-52.5,38.2"/>
    <path class="st0" d="M281.6,351.8s42.3,31.3,30.8,67.5c-10,31.6-15.3,44.8-9.2,50.2.6.5,0,1.4-.8,1.2-9.8-1-35.3-.6-52.5-38.1"/>
  </g>
  <path class="st1" d="M279.8,36.2c136.8,26.2,185.8,166,185.8,166"/>
</svg>