<?xml version="1.0" encoding="UTF-8"?>
<svg id="Layer_1" xmlns="http://www.w3.org/2000/svg" version="1.1" viewBox="0 0 550 550">
  <!-- Generator: Adobe Illustrator 29.6.1, SVG Export Plug-In . SVG Version: 2.1.1 Build 9)  -->
  <defs>
    <style>
      .st0 {
        fill: none;
        stroke: currentColor;
        stroke-linecap: round;
        stroke-linejoin: round;
        stroke-width: var(--stroke-width, 40px);
      }
    </style>
  </defs>
  <path class="st0" d="M250.9,309.9s-25.4,75.6-83.1,76.1c-50.4.4-71.8-1.1-76.8,10.3-.4,1-1.9.7-2.1-.5-3.1-14.5-15.6-51.2,30.5-93.6"/>
  <path class="st0" d="M234.4,262.9s-79.8-.8-98-55.5c-16-47.8-21.2-68.6-33.5-69.8-1.1-.1-1.2-1.6-.2-2.2,12.8-7.4,43.9-30.7,98.4,0"/>
  <path class="st0" d="M274,232.6s-23.8-76.1,22.5-110.4c40.5-29.9,58.7-41.3,56.1-53.4-.2-1.1,1.1-1.6,2-.8,11,9.9,42.7,32.3,30.4,93.6"/>
  <path class="st0" d="M315,260.9s65-46.2,111.9-12.7c41,29.3,57.5,43.1,68.2,36.8.9-.6,1.9.6,1.4,1.7-6,13.5-17.5,50.6-79.6,57.8"/>
  <path class="st0" d="M300.7,308.7s64,47.6,46.7,102.5c-15.2,48-23.2,68-13.9,76.2.8.7,0,2-1.1,1.9-14.7-1.6-53.6-1-79.6-57.9"/>
</svg>