<?xml version="1.0" encoding="UTF-8"?>
<svg id="Layer_1" xmlns="http://www.w3.org/2000/svg" version="1.1" viewBox="0 0 512 512">
  <!-- Generator: Adobe Illustrator 29.6.1, SVG Export Plug-In . SVG Version: 2.1.1 Build 9)  -->
  <defs>
    <style>
      .st0 {
        fill: none;
        stroke: currentColor;
        stroke-linecap: round;
        stroke-linejoin: round;
        stroke-width: var(--stroke-width, 35px);
        opacity: 0.3;
      }
    </style>
  </defs>
  <path class="st0" d="M261.5,372.3c-15.3,0-30.1-1-44.2-2.9l8.4-8.4c12.3,1.5,25.3,2.2,38.8,2.2,44.4,0,84.4-9.7,119.1-28.9,29.3-16.2,54.8-39.2,75.8-68.2,2.5-3.5,2.5-8.2,0-11.7-12.9-17.7-33.8-42.4-62.9-64.1l8.4-8.4c33.1,22.4,61.7,51.5,77.3,78.7,0,0,0,0,0,0-51.7,74.1-126,111.7-220.7,111.7h0Z"/>
  <path class="st0" d="M75.4,413.9c-.3-.3-.3-.9,0-1.3l59.7-59.7c2.3-2.3,3.3-5.6,2.8-8.8s-2.7-5.9-5.6-7.3c-37.9-17.8-71.2-45.5-101.6-84.8,34.1-49,116.4-128.9,218.2-128.9s59.7,6,89.5,17.9c1.2.5,2.4.7,3.7.7,2.6,0,5.1-1,7.1-2.9l72.6-72.6c.2-.2.4-.3.6-.3s.5,0,.6.3l4.2,4.2c-.2.2-.4.4-.7.6l-128.3,128.3-20.2,20.2-69.1,69.1-60.9,60.9-67.9,67.9c-.2.2-.4.4-.6.7l-4.2-4.2h0ZM251.8,132.3c-43,0-84.2,13-122.5,38.7-35.1,23.5-60.4,52.9-75.5,73.3-2.6,3.6-2.6,8.5.1,12,27.5,35.7,57.9,60.5,93.1,75.8,1.3.6,2.6.8,4,.8,2.6,0,5.1-1,7.1-2.9l45.8-45.8c3.4-3.4,3.9-8.7,1.2-12.6-5.9-8.7-9-18.9-9-29.3,0-29.6,24.8-53.6,55.3-53.6s20.5,2.8,29.2,8.1c12.8,5.1,3.4,1.5,5.2,1.5,2.6,0,5.1-1,7.1-2.9l33.9-33.9c3.1-3.1,3.9-8.1,1.5-12.1-1.2-2.1-3.2-3.6-5.4-4.4-23-8.3-46.9-12.4-71.1-12.4h0ZM238.2,189.6c-20.9,3.3-42.2,27-42.2,52.6s3.2,18,5.7,23.9c1,2.2,4.5,10,6.7,11.1,5.2,11.3,16.4-4.2,18.3-6.1l51.4-51.4c1.5-1.5,8.8-7.1,9.1-9.1,7.5-10.1-2.4-12.1-6.7-13.8-12.3-5.5-17.9-7.1-29.6-7.9l-12.7.8h0Z"/>
</svg>