<?xml version="1.0" encoding="UTF-8"?>
<svg id="Layer_1" xmlns="http://www.w3.org/2000/svg" version="1.1" viewBox="0 0 512 512">
  <!-- Generator: Adobe Illustrator 29.6.1, SVG Export Plug-In . SVG Version: 2.1.1 Build 9)  -->
  <defs>
    <style>
      .st0 {
        fill: none;
        stroke: currentColor;
        stroke-miterlimit: 10;
        stroke-width: var(--stroke-width, 35px);
      }
    </style>
  </defs>
  <path class="st0" d="M474.8,471.3c-.7,0-1.2-.2-1.7-.7l-165.3-165.3c-5.7-5.7-13.2-8.8-21.2-8.8s-12.9,2.1-18.1,6.1c-25.4,19.3-55.8,29.5-87.9,29.5-80.3,0-145.7-65.4-145.7-145.7S100.2,40.7,180.6,40.7s145.7,65.4,145.7,145.7-7.5,53.5-21.6,76.4c-7.3,11.9-5.6,27.1,4.3,37l167.5,167.5c.9.9.9,2.5,0,3.4-.5.5-1,.7-1.7.7h0ZM180.6,42.5c-79.4,0-144,64.6-144,144s64.6,144,144,144,144-64.6,144-144S259.9,42.5,180.6,42.5Z"/>
</svg>