<?xml version="1.0" encoding="UTF-8"?>
<svg id="Layer_1" xmlns="http://www.w3.org/2000/svg" version="1.1" viewBox="0 0 512 512">
  <!-- Generator: Adobe Illustrator 29.6.1, SVG Export Plug-In . SVG Version: 2.1.1 Build 9)  -->
  <defs>
    <style>
      .st0 {
        fill: none;
        stroke: currentColor;
        stroke-linecap: round;
        stroke-linejoin: round;
        stroke-width: var(--stroke-width, 35px);
      }
    </style>
  </defs>
  <path class="st0" d="M256,381.5c-53.1,0-98.6-10.5-139-32.2-35-18.7-58.5-46.9-87.4-83.8,12.7-17.9,34.3-53.7,80.6-85.8,47.1-32.7,95.4-49.2,143.5-49.2s115.3,22.9,146.9,45.4c38,27.1,63.5,57,81.8,87.9-55.2,78.1-125.8,117.7-226.3,117.7h0ZM256.8,134.4c-47,0-92,14.2-133.8,42.2-38.2,25.6-65.8,57.5-82.2,79.8-3.6,4.9-3.5,11.6.2,16.5,55.7,72.3,123,104.5,218.4,104.5s92.1-10.6,129.9-31.5c32-17.7,59.9-42.8,82.7-74.5,3.5-4.8,3.5-11.3,0-16.1-26.5-36.4-100.6-121-215.1-121h0Z"/>
  <path class="st0" d="M256.3,309.6c-30.5,0-55.4-24.1-55.4-53.6s24.8-53.6,55.4-53.6,55.4,24.1,55.4,53.6-24.8,53.6-55.4,53.6ZM256.3,204.2c-29.1,0-52.8,23.2-52.8,51.8s23.7,51.8,52.8,51.8,52.8-23.2,52.8-51.8-23.7-51.8-52.8-51.8Z"/>
</svg>